<svg width="20" height="20" viewBox="0 0 20 20" fill="none" xmlns="http://www.w3.org/2000/svg">
<g clip-path="url(#clip0_837_4362)">
<path d="M0.405474 0.0703373C0.260942 0.148462 0.0968798 0.335962 0.038286 0.4844C-0.0242141 0.648462 -0.00858908 0.941431 0.0734422 1.11331C0.124224 1.22268 2.96016 4.08206 9.49533 10.6094C17.3977 18.5039 18.8664 19.9571 18.9797 19.9766C19.3625 20.0469 19.6242 19.9727 19.8196 19.7422C19.9524 19.5821 19.9992 19.4453 19.9992 19.2344C19.9992 18.9141 19.925 18.8164 18.9602 17.8477L18.0422 16.9258L18.261 16.8789C18.9836 16.7188 19.6125 16.1485 19.8938 15.4063L19.9797 15.1758V10V4.82424L19.8938 4.59377C19.6242 3.88284 19.1008 3.38674 18.3586 3.13674C18.1516 3.07034 17.8274 3.06643 11.1516 3.05471L4.15938 3.0469L2.65548 1.5469C1.42501 0.324244 1.12813 0.0468998 1.01876 0.0234623C0.792193 -0.0195065 0.530474 2.47955e-05 0.405474 0.0703373ZM18.0383 4.72268C18.3586 4.88674 18.4367 5.07815 18.4367 5.68362V6.13284H12.8391H7.24532L6.50313 5.39065L5.76095 4.64846H11.8274C17.7024 4.64846 17.8977 4.65237 18.0383 4.72268ZM18.4367 11.6211C18.4367 14.3633 18.4289 14.7852 18.3781 14.9102C18.3 15.0977 18.218 15.1875 18.0383 15.2774C17.9094 15.3438 17.8039 15.3516 17.1789 15.3516H16.4641L13.0266 11.9141L9.58908 8.47659H14.0149H18.4367V11.6211Z" fill="white"/>
<path d="M0.421246 4.05473C0.257183 4.30082 0.132183 4.57426 0.0618706 4.84379C-0.000629521 5.07817 -0.00453578 5.50395 0.00718299 10.1368L0.0189018 15.1758L0.104839 15.4063C0.374371 16.1172 0.897809 16.6133 1.64 16.8594C1.84312 16.9297 2.1439 16.9336 7.70641 16.9454C10.9213 16.9493 13.5541 16.9414 13.5541 16.9258C13.5541 16.9063 13.2064 16.5469 12.7806 16.1211L12.0111 15.3516H7.05797C2.27672 15.3516 2.10094 15.3477 1.96031 15.2774C1.78062 15.1875 1.69859 15.0977 1.62047 14.9102C1.56968 14.7852 1.56187 14.3633 1.56187 11.6211V8.47661H3.31969C4.28844 8.47661 5.0775 8.46489 5.0775 8.44536C5.0775 8.42973 4.56188 7.90239 3.93297 7.27348L2.79234 6.13286H2.17515H1.56187V5.73832C1.56187 5.52348 1.5814 5.26567 1.60484 5.16801L1.65172 4.99223L1.10875 4.44926C0.811871 4.15239 0.554059 3.90629 0.54234 3.90629C0.526715 3.90629 0.472027 3.9727 0.421246 4.05473Z" fill="white"/>
</g>
<defs>
<clipPath id="clip0_837_4362">
<rect width="20" height="20" fill="white"/>
</clipPath>
</defs>
</svg>
